#!OML:ASF H:\Dans Jumps\Project 1\Capture day 1\Session 1\subject.ASF
:FULLY-SPECIFIED
:DEGREES
511
root 0.712272 17.6301 2.68583 7.68546 -0.0612516 -1.07683
lowerback -1.78773 -0.245123 -0.811617
upperback 1.20005 -0.344727 1.92896
thorax 2.25051 -0.200593 2.42383
lowerneck -12.777 -0.2456 -1.73237
upperneck 24.1971 -0.0898817 0.579735
head 9.76952 -0.134281 0.484837
rclavicle 3.77691e-015 -7.95139e-016
rhumerus -25.5585 -23.1253 -77.4629
rradius 18.8695
rwrist 45.719
rhand -20.0089 -27.0079
rfingers 7.12502
rthumb 6.33118 -56.8933
lclavicle 3.77691e-015 -7.95139e-016
lhumerus -23.1811 2.61188 89.3355
lradius 13.1803
lwrist 1.5257
lhand -24.9082 -4.25342
lfingers 7.12502
lthumb 1.60026 25.7203
rfemur -14.3173 -2.56376 19.3442
rtibia 25.2063
rfoot -15.5526 -1.71782
rtoes 11.2456
lfemur -13.6164 6.47076 -17.9539
ltibia 22.3115
lfoot -12.4659 5.44638
ltoes -4.07071
512
root 0.711688 17.6289 2.68926 7.67651 -0.0868031 -1.06777
lowerback -1.80882 -0.233429 -0.823549
upperback 1.20092 -0.32865 1.92024
thorax 2.26251 -0.192781 2.42211
lowerneck -12.7644 -0.236604 -1.71971
upperneck 24.1291 -0.0775422 0.568622
head 9.74276 -0.128337 0.480099
rclavicle -2.98177e-015 -1.03368e-014
rhumerus -25.6879 -23.1124 -77.4131
rradius 18.8786
rwrist 45.6578
rhand -19.9525 -26.9748
rfingers 7.12502
rthumb 6.38571 -56.8585
lclavicle -2.98177e-015 -1.03368e-014
lhumerus -23.2109 2.61334 89.2971
lradius 13.2079
lwrist 1.56711
lhand -24.9809 -4.36185
lfingers 7.12502
lthumb 1.53001 25.6124
rfemur -14.298 -2.55153 19.335
rtibia 25.2134
rfoot -15.5792 -1.71625
rtoes 11.1735
lfemur -13.5831 6.47456 -17.9612
ltibia 22.3037
lfoot -12.4858 5.47765
ltoes -4.07432
513
root 0.711027 17.6276 2.69238 7.67327 -0.109949 -1.062
lowerback -1.83148 -0.224308 -0.832152
upperback 1.20086 -0.316129 1.91362
thorax 2.27458 -0.186705 2.42057
lowerneck -12.7574 -0.225506 -1.71072
upperneck 24.0541 -0.0611381 0.556857
head 9.71452 -0.12088 0.476225
rclavicle -3.67752e-015 1.59028e-015
rhumerus -25.8182 -23.0621 -77.3759
rradius 18.8987
rwrist 45.57
rhand -19.8995 -26.9489
rfingers 7.12502
rthumb 6.43684 -56.8311
lclavicle -3.67752e-015 1.59028e-015
lhumerus -23.2454 2.63609 89.2505
lradius 13.2331
lwrist 1.58636
lhand -25.045 -4.45973
lfingers 7.12502
lthumb 1.46811 25.515
rfemur -14.2883 -2.53794 19.3304
rtibia 25.2246
rfoot -15.6053 -1.71702
rtoes 11.1005
lfemur -13.5624 6.47831 -17.9641
ltibia 22.3052
lfoot -12.5099 5.50315
ltoes -4.06502
514
root 0.710353 17.6262 2.69519 7.67707 -0.129865 -1.05681
lowerback -1.85749 -0.217858 -0.838147
upperback 1.19935 -0.307238 1.90754
thorax 2.28723 -0.182401 2.41797
lowerneck -12.75 -0.212349 -1.7021
upperneck 23.968 -0.0405743 0.540293
head 9.68233 -0.112015 0.471212
rclavicle -3.926e-015 2.34566e-014
rhumerus -25.9464 -23.0067 -77.3419
rradius 18.9159
rwrist 45.4897
rhand -19.8422 -26.929
rfingers 7.12502
rthumb 6.49215 -56.8095
lclavicle -3.926e-015 2.34566e-014
lhumerus -23.2825 2.67465 89.1964
lradius 13.2577
lwrist 1.58981
lhand -25.075 -4.48497
lfingers 7.12502
lthumb 1.43915 25.4899
rfemur -14.2889 -2.52883 19.3273
rtibia 25.2386
rfoot -15.6311 -1.7169
rtoes 11.0151
lfemur -13.5561 6.4816 -17.9667
ltibia 22.3159
lfoot -12.5365 5.52549
ltoes -4.0558
515
root 0.709605 17.6248 2.69759 7.68643 -0.145059 -1.05544
lowerback -1.88644 -0.213754 -0.838927
upperback 1.19852 -0.301663 1.90275
thorax 2.30236 -0.179709 2.41363
lowerneck -12.7473 -0.198159 -1.69095
upperneck 23.8729 -0.0174971 0.517347
head 9.64781 -0.102416 0.463831
rclavicle 1.49089e-016 1.98785e-015
rhumerus -26.0688 -22.9544 -77.3107
rradius 18.9295
rwrist 45.4218
rhand -19.7818 -26.9171
rfingers 7.12502
rthumb 6.55046 -56.7958
lclavicle 1.49089e-016 1.98785e-015
lhumerus -23.3199 2.73397 89.1334
lradius 13.2824
lwrist 1.57348
lhand -25.084 -4.46257
lfingers 7.12502
lthumb 1.43041 25.5124
rfemur -14.2968 -2.5218 19.3295
rtibia 25.2526
rfoot -15.6561 -1.71828
rtoes 10.9288
lfemur -13.5637 6.48531 -17.9652
ltibia 22.3362
lfoot -12.5638 5.5451
ltoes -4.05674
516
root 0.708841 17.6234 2.69956 7.70127 -0.157073 -1.05821
lowerback -1.91582 -0.210505 -0.832618
upperback 1.19572 -0.29741 1.89794
thorax 2.31573 -0.177534 2.40524
lowerneck -12.7384 -0.1843 -1.67718
upperneck 23.7663 0.0052833 0.490602
head 9.60817 -0.093079 0.454621
rclavicle 2.78299e-015 -2.46493e-014
rhumerus -26.1897 -22.9308 -77.2728
rradius 18.93
rwrist 45.3835
rhand -19.7203 -26.9074
rfingers 7.12502
rthumb 6.6098 -56.7843
lclavicle 2.78299e-015 -2.46493e-014
lhumerus -23.3604 2.80377 89.0633
lradius 13.302
lwrist 1.54404
lhand -25.0796 -4.42245
lfingers 7.12502
lthumb 1.43465 25.5525
rfemur -14.3122 -2.51539 19.3368
rtibia 25.2661
rfoot -15.6799 -1.72056
rtoes 10.8428
lfemur -13.5833 6.48873 -17.96
ltibia 22.3626
lfoot -12.591 5.56385
ltoes -4.06402
517
root 0.708068 17.6221 2.70099 7.71901 -0.165511 -1.06945
lowerback -1.94308 -0.207963 -0.814925
upperback 1.19269 -0.294462 1.89449
thorax 2.32769 -0.175826 2.39179
lowerneck -12.7304 -0.171473 -1.66047
upperneck 23.6549 0.0270846 0.459068
head 9.56706 -0.0844288 0.443137
rclavicle -9.93923e-016 1.47101e-014
rhumerus -26.3092 -22.9335 -77.229
rradius 18.9211
rwrist 45.3687
rhand -19.6652 -26.8961
rfingers 7.12502
rthumb 6.66307 -56.7713
lclavicle -9.93923e-016 1.47101e-014
lhumerus -23.4019 2.87442 88.9903
lradius 13.3153
lwrist 1.50969
lhand -25.0602 -4.35881
lfingers 7.12502
lthumb 1.45347 25.616
rfemur -14.3316 -2.50957 19.3536
rtibia 25.2773
rfoot -15.7007 -1.72249
rtoes 10.7803
lfemur -13.6106 6.49224 -17.946
ltibia 22.3918
lfoot -12.6158 5.58225
ltoes -4.08017
518
root 0.707326 17.6208 2.70219 7.73483 -0.170493 -1.07873
lowerback -1.96654 -0.206678 -0.796387
upperback 1.19037 -0.293201 1.88977
thorax 2.33829 -0.174929 2.37651
lowerneck -12.7177 -0.159981 -1.64971
upperneck 23.5369 0.0469558 0.432624
head 9.52286 -0.0765884 0.434183
rclavicle -5.11871e-015 1.82882e-014
rhumerus -26.4303 -22.9576 -77.1799
rradius 18.9068
rwrist 45.369
rhand -19.619 -26.8801
rfingers 7.12502
rthumb 6.70758 -56.7539
lclavicle -5.11871e-015 1.82882e-014
lhumerus -23.447 2.94808 88.9157
lradius 13.3223
lwrist 1.47581
lhand -25.0465 -4.30941
lfingers 7.12502
lthumb 1.46665 25.6653
rfemur -14.3486 -2.5098 19.3679
rtibia 25.2863
rfoot -15.7211 -1.71966
rtoes 10.7322
lfemur -13.6362 6.49434 -17.9346
ltibia 22.4186
lfoot -12.6385 5.60203
ltoes -4.10766
519
root 0.706703 17.6197 2.70335 7.74471 -0.17363 -1.08474
lowerback -1.98355 -0.206642 -0.778442
upperback 1.18987 -0.293591 1.88427
thorax 2.34723 -0.174858 2.36069
lowerneck -12.7042 -0.149856 -1.65038
upperneck 23.4172 0.0651519 0.415527
head 9.478 -0.0694725 0.430197
rclavicle 7.95139e-016 -7.55382e-015
rhumerus -26.5544 -22.9887 -77.1284
rradius 18.8939
rwrist 45.3657
rhand -19.5816 -26.8587
rfingers 7.12502
rthumb 6.74376 -56.7313
lclavicle 7.95139e-016 -7.55382e-015
lhumerus -23.4958 3.01692 88.8438
lradius 13.3174
lwrist 1.43819
lhand -25.0625 -4.31606
lfingers 7.12502
lthumb 1.45117 25.6588
rfemur -14.3579 -2.51699 19.3771
rtibia 25.2931
rfoot -15.741 -1.70718
rtoes 10.7104
lfemur -13.6519 6.49577 -17.9273
ltibia 22.4386
lfoot -12.6587 5.62377
ltoes -4.1478
520
root 0.706209 17.6187 2.70453 7.74939 -0.176007 -1.08716
lowerback -1.99572 -0.208003 -0.7623
upperback 1.19062 -0.295795 1.87842
thorax 2.35481 -0.175716 2.34548
lowerneck -12.6876 -0.141684 -1.6689
upperneck 23.2927 0.0812846 0.411876
head 9.43096 -0.0633535 0.433608
rclavicle -2.33572e-015 5.1684e-015
rhumerus -26.6809 -23.034 -77.0711
rradius 18.878
rwrist 45.3706
rhand -19.5493 -26.8323
rfingers 7.12502
rthumb 6.77488 -56.704
lclavicle -2.33572e-015 5.1684e-015
lhumerus -23.5512 3.09654 88.7708
lradius 13.3079
lwrist 1.38974
lhand -25.0959 -4.35245
lfingers 7.12502
lthumb 1.41896 25.6226
rfemur -14.3607 -2.53278 19.3808
rtibia 25.2994
rfoot -15.7623 -1.68369
rtoes 10.7057
lfemur -13.6556 6.49602 -17.9242
ltibia 22.4479
lfoot -12.6768 5.64648
ltoes -4.18711
521
root 0.705737 17.6179 2.70578 7.74743 -0.178437 -1.08416
lowerback -2.00222 -0.21075 -0.752643
upperback 1.19453 -0.299689 1.87278
thorax 2.36258 -0.177547 2.33407
lowerneck -12.6773 -0.133894 -1.70025
upperneck 23.1682 0.0976991 0.417209
head 9.38519 -0.0572045 0.442305
rclavicle -3.57812e-015 8.74653e-015
rhumerus -26.8064 -23.0559 -77.0216
rradius 18.8719
rwrist 45.3414
rhand -19.5133 -26.8174
rfingers 7.12502
rthumb 6.80964 -56.6879
lclavicle -3.57812e-015 8.74653e-015
lhumerus -23.6091 3.19217 88.6957
lradius 13.2898
lwrist 1.31964
lhand -25.1434 -4.43214
lfingers 7.12502
lthumb 1.37307 25.5432
rfemur -14.3551 -2.55333 19.3775
rtibia 25.3046
rfoot -15.7829 -1.65326
rtoes 10.7149
lfemur -13.6465 6.4962 -17.9267
ltibia 22.4471
lfoot -12.6922 5.66891
ltoes -4.2222
